<svg width="21" height="24" viewBox="0 0 21 24" fill="none" xmlns="http://www.w3.org/2000/svg">
<path d="M11.7667 2.72872L10.1388 2.72497C6.42552 2.71496 3.20196 6.1152 3.17642 10.2338V15.5206C3.17642 16.5092 1.92309 16.9304 1.4445 17.7526L1.12581 18.3008C0.640551 19.1318 1.16245 20.2456 2.03413 20.2456H19.5453C20.417 20.2456 20.9377 19.1318 20.4536 18.3008L20.1349 17.7526C19.6574 16.9304 18.7557 16.5092 18.7557 15.5206V10.2351C18.7112 6.11521 15.4799 2.73873 11.7667 2.72872Z" fill="#ADB3C6"/>
<path d="M14.1778 20.8804C14.1778 21.7078 13.8208 22.5012 13.1854 23.0863C12.55 23.6713 11.6881 24 10.7895 24C9.89082 24 9.02898 23.6713 8.39355 23.0863C7.75811 22.5012 7.40112 21.7078 7.40112 20.8804" fill="#ADB3C6"/>
<path d="M11 0C11.6654 0 12.3035 0.263702 12.774 0.733095C13.2445 1.20249 13.5088 1.83912 13.5088 2.50294V3.75442H8.49115V2.50294C8.49115 1.83912 8.75547 1.20249 9.22598 0.733095C9.69648 0.263702 10.3346 0 11 0Z" fill="#ADB3C6"/>
</svg>
