<svg width="24" height="24" viewBox="0 0 24 24" fill="none" xmlns="http://www.w3.org/2000/svg">
<path fill-rule="evenodd" clip-rule="evenodd" d="M18.1841 16.3898C19.7672 14.348 20.5133 11.7795 20.2706 9.20693C20.0279 6.63435 18.8147 4.25088 16.8777 2.54143C14.9407 0.831973 12.4255 -0.0750558 9.84375 0.00486632C7.262 0.0847884 4.80765 1.14566 2.98003 2.97165C1.1508 4.79891 0.0868904 7.25518 0.00509107 9.83993C-0.0767083 12.4247 0.829764 14.9434 2.53978 16.8827C4.2498 18.8221 6.63467 20.0361 9.20839 20.2775C11.7821 20.5189 14.351 19.7694 16.3915 18.1818L16.4461 18.239L21.8315 23.6278C21.9495 23.7458 22.0895 23.8394 22.2436 23.9033C22.3978 23.9671 22.5629 24 22.7297 24C22.8966 24 23.0617 23.9671 23.2159 23.9033C23.37 23.8394 23.51 23.7458 23.628 23.6278C23.7459 23.5098 23.8395 23.3697 23.9033 23.2155C23.9671 23.0614 24 22.8961 24 22.7292C24 22.5624 23.9671 22.3971 23.9033 22.2429C23.8395 22.0888 23.7459 21.9487 23.628 21.8307L18.2413 16.4431C18.2227 16.4248 18.2037 16.407 18.1841 16.3898ZM15.5485 4.76878C16.2653 5.47427 16.8354 6.31475 17.2259 7.24174C17.6163 8.16874 17.8195 9.1639 17.8236 10.1698C17.8277 11.1758 17.6326 12.1725 17.2497 13.1027C16.8668 14.0328 16.3036 14.8779 15.5926 15.5892C14.8816 16.3005 14.0368 16.864 13.107 17.247C12.1773 17.6301 11.1809 17.8252 10.1753 17.8211C9.16981 17.817 8.17504 17.6138 7.24842 17.2232C6.32179 16.8326 5.48164 16.2623 4.77644 15.5452C3.36713 14.1122 2.58095 12.1801 2.58913 10.1698C2.59731 8.15956 3.3992 6.23397 4.82012 4.81248C6.24104 3.39099 8.16587 2.58879 10.1753 2.5806C12.1848 2.57242 14.1161 3.35891 15.5485 4.76878Z" fill="#0057B6"/>
</svg>
